<?xml version="1.0" encoding="utf-8"?>
<!-- Generator: Adobe Illustrator 21.0.0, SVG Export Plug-In . SVG Version: 6.00 Build 0)  -->
<svg version="1.1" id="Layer_1" xmlns="http://www.w3.org/2000/svg" xmlns:xlink="http://www.w3.org/1999/xlink" x="0px" y="0px"
	 viewBox="0 0 213 68" style="enable-background:new 0 0 213 68;" xml:space="preserve">
<style type="text/css">
	.st0{fill:#172432;}
	.st1{fill:url(#SVGID_1_);}
	.st2{fill:url(#SVGID_2_);}
</style>
<g>
	<path class="st0" d="M110.6,9.5l21.7,47.2c0.6,1.3-0.3,2.7-1.7,2.7h-4.3c-0.7,0-1.4-0.4-1.7-1.1l-7.1-15.5H96.2l-7.3,15.5
		c-0.3,0.7-1,1.1-1.7,1.1h0c-1.4,0-2.3-1.4-1.7-2.7l22.3-47.3c0.3-0.6,0.8-0.9,1.5-0.9l0,0C109.8,8.5,110.4,8.9,110.6,9.5z
		 M97.7,39.6H116l-9-19.7L97.7,39.6z"/>
	<path class="st0" d="M140.9,8.6h3.9c1.2,0,2.2,1,2.2,2.2v46.3c0,1.2-1,2.2-2.2,2.2h-3.9c-1.2,0-2.2-1-2.2-2.2V10.8
		C138.7,9.6,139.7,8.6,140.9,8.6z"/>
	<g>
		
			<radialGradient id="SVGID_1_" cx="21.8958" cy="28.7769" r="42.8394" gradientTransform="matrix(0.9995 0 0 0.9995 1.1569 1.1824)" gradientUnits="userSpaceOnUse">
			<stop  offset="0" style="stop-color:#E30427"/>
			<stop  offset="0.5347" style="stop-color:#92388C"/>
			<stop  offset="1" style="stop-color:#2565AD"/>
		</radialGradient>
		<path class="st1" d="M30.8,18.6c9.4-0.1,15.3,7.3,12.9,17.2c-1.9,7.7-7.9,13.4-14,14.3c-5.5,0.8-10.2-2.2-11.2-7.6
			c-0.9-5.1,1.5-10.3,4.6-13.2c2.5-2.3,4.4-2.7,5.1-2.9c2.1-0.6,4.2,0.5,4.9,2.5c0.8,2.4-0.5,4.6-3.5,5.1c-4.3,0.6-8.6,9.1-3.1,11.4
			c2.7,1.2,7.6,0.1,10.9-4.3c6.9-8.9,3.9-20.2-6.6-19.7C14.5,21.9,4.4,48.9,16.7,57.8c12.7,9.6,37.4-3.6,40.4-24.8
			c0.7-4.8,0.3-9.7-0.9-14.4c-0.7-2.8-1.7-5.4-2.9-7.7l0,0c-0.4-0.8-0.9-1.6-1.5-2.3c-3.2-4.4-8-7.5-13.6-8.4C36.8,0.1,35.4,0,34,0
			C15.2,0,0,15.2,0,34c0,9.2,3.7,17.5,9.6,23.7C0.8,43.7,13.4,19,30.8,18.6z"/>
		
			<radialGradient id="SVGID_2_" cx="39.8373" cy="34.3244" r="39.0708" gradientTransform="matrix(0.9995 0 0 0.9995 1.1569 1.1824)" gradientUnits="userSpaceOnUse">
			<stop  offset="0" style="stop-color:#E30427"/>
			<stop  offset="0.5347" style="stop-color:#92388C"/>
			<stop  offset="1" style="stop-color:#2565AD"/>
		</radialGradient>
		<path class="st2" d="M50.3,4.1c3.6,3.2,6.3,7.7,8.2,13.8c1.6,4.9,2.3,10.2,1.8,15.5c-0.9,11.1-7.5,20.8-15.6,26.7
			c-6.5,4.8-14.4,7.2-21.8,6C26.4,67.3,30.1,68,34,68c18.8,0,34-15.2,34-34C68,21.1,60.8,9.9,50.3,4.1z"/>
	</g>
	<path class="st0" d="M210.7,8.7h-5.4c-0.8,0-1.6,0.5-1.9,1.2c0,0-18.6,37.4-18.7,37.6c-0.1,0.2-0.2,0.3-0.4,0.3
		c-0.2,0-0.3-0.1-0.3-0.3c-0.1-0.2-19.2-37.8-19.2-37.8c-0.4-0.7-1.1-1.2-1.9-1.2h-5.1c-1.2,0-2.2,1-2.2,2.2v47c0,1,0.8,1.9,1.9,1.9
		c1,0,1.9-0.8,1.9-1.9c0,0,0-39.3,0-39.8c0-0.4,0.4-0.3,0.6,0c0.1,0.2,20.8,40.8,20.8,40.8c0.2,0.5,0.7,0.8,1.3,0.8
		c0.5,0,1-0.3,1.3-0.8c0,0,18.4-36.9,20.3-40.7l0,0c0.2-0.4,0.3-0.6,0.3-0.6c0.1-0.3,0.6-0.4,0.6,0v0.3c0,0,0,0,0,0
		c0,0.2,0,39.7,0,39.7c0,1.2,1,2.2,2.2,2.2h4.1c1.2,0,2.2-1,2.2-2.2V10.8C212.9,9.6,211.9,8.7,210.7,8.7z"/>
</g>
</svg>
